<?xml version="1.0" encoding="UTF-8" standalone="no"?>
<!-- Created with Inkscape (http://www.inkscape.org/) -->

<svg
   xmlns:dc="http://purl.org/dc/elements/1.1/"
   xmlns:cc="http://creativecommons.org/ns#"
   xmlns:rdf="http://www.w3.org/1999/02/22-rdf-syntax-ns#"
   xmlns:svg="http://www.w3.org/2000/svg"
   xmlns="http://www.w3.org/2000/svg"
   xmlns:sodipodi="http://sodipodi.sourceforge.net/DTD/sodipodi-0.dtd"
   xmlns:inkscape="http://www.inkscape.org/namespaces/inkscape"
   height="34"
   width="39"
   version="1.1"
   id="svg12865"
   inkscape:version="0.48.4 r9939"
   sodipodi:docname="blender.svg">
  <defs
     id="defs12873" />
  <sodipodi:namedview
     pagecolor="#ffffff"
     bordercolor="#666666"
     borderopacity="1"
     objecttolerance="10"
     gridtolerance="10"
     guidetolerance="10"
     inkscape:pageopacity="0"
     inkscape:pageshadow="2"
     inkscape:window-width="640"
     inkscape:window-height="480"
     id="namedview12871"
     showgrid="false"
     inkscape:zoom="9.5712316"
     inkscape:cx="14.768782"
     inkscape:cy="17"
     inkscape:window-x="65"
     inkscape:window-y="24"
     inkscape:window-maximized="0"
     inkscape:current-layer="svg12865" />
  <metadata
     id="metadata12867">
    <rdf:RDF>
      <cc:Work
         rdf:about="">
        <dc:format>image/svg+xml</dc:format>
        <dc:type
           rdf:resource="http://purl.org/dc/dcmitype/StillImage" />
        <dc:title />
      </cc:Work>
    </rdf:RDF>
  </metadata>
  <path
     d="m 19.456323,24.524423 c -3.88037,-1.04628 -6.7046,-3.84715 -7.41413,-7.3528 -0.302334,-1.49376 -0.396165,-1.66245 -0.741884,-1.33378 -0.217676,0.206943 -0.965817,0.834411 -1.6625304,1.39437 -0.696717,0.559959 -1.4222,1.16332 -1.61219,1.34081 -0.910885,0.850935 -2.89681,2.06575 -3.377,2.06575 -0.896725,0 -1.41437,-0.308022 -1.67656,-0.997624 -0.382642,-1.00642 0.348457,-2.18185 2.21497,-3.56112 0.898158,-0.6637 1.76782,-1.3274 1.93258,-1.47489 0.164762,-0.14749 1.32529,-1.04742 2.57894,-1.99985 1.2536604,-0.95243 2.3397104,-1.79822 2.4134604,-1.87952 0.07374,-0.08131 0.585779,-0.448439 1.13786,-0.8158454 0.552076,-0.367406 1.0046,-0.758515 1.00561,-0.869131 10e-4,-0.110617 -1.39384,-0.201122 -3.09966,-0.201122 -1.7058204,0 -3.3349004,-0.124919 -3.6201804,-0.277597 -0.67427,-0.361 -0.65896,-1.08776 0.03979,-1.89389 l 0.558569,-0.644396 h 6.2791404 c 3.45353,0 6.27933,-0.076178 6.27956,-0.169294 2.28e-4,-0.093111 -0.45211,-0.503629 -1.00519,-0.912262 -1.468,-1.0846 -3.01682,-2.60103 -3.01682,-2.95373 0,-0.548036 0.961904,-1.19386998 1.77815,-1.19386998 0.594645,0 1.61662,0.63061298 4.01989,2.48049998 1.77239,1.36427 3.62787,2.78218 4.12328,3.1509 2.88872,2.15 4.08968,3.39219 5.05305,5.2265204 0.601417,1.14514 0.705503,1.67989 0.705154,3.62282 -2.68e-4,1.92754 -0.113855,2.51918 -0.735376,3.83295 -2.04096,4.31418 -7.39675,6.69987 -12.1586,5.41593 z m 4.79052,-4.53641 c 2.53318,-0.904003 4.0525,-2.97452 4.06984,-5.54633 0.0082,-1.22254 -0.131166,-1.70817 -0.744374,-2.59304 -2.06715,-2.9829004 -6.27851,-3.7253104 -9.2045,-1.62265 -2.13826,1.53659 -2.95939,3.9669 -2.10032,6.21635 1.14908,3.00883 4.86133,4.65839 7.97935,3.54567 z m -3.37032,-2.14246 c -1.33628,-0.488004 -1.97194,-1.08689 -2.3412,-2.20576 -0.448526,-1.35905 -0.09172,-2.91047 0.851997,-3.70456 2.03383,-1.71136 5.07463,-1.3532 6.37502,0.750874 1.84019,2.97749 -1.42344,6.42389 -4.88581,5.15944 z"
     id="path12869"
     style="fill:#ffffff"
     inkscape:connector-curvature="0" />
</svg>
