<?xml version="1.0" encoding="UTF-8" standalone="no"?>
<!-- Created with Inkscape (http://www.inkscape.org/) -->

<svg
   xmlns:dc="http://purl.org/dc/elements/1.1/"
   xmlns:cc="http://creativecommons.org/ns#"
   xmlns:rdf="http://www.w3.org/1999/02/22-rdf-syntax-ns#"
   xmlns:svg="http://www.w3.org/2000/svg"
   xmlns="http://www.w3.org/2000/svg"
   xmlns:sodipodi="http://sodipodi.sourceforge.net/DTD/sodipodi-0.dtd"
   xmlns:inkscape="http://www.inkscape.org/namespaces/inkscape"
   height="90"
   width="220"
   version="1.1"
   id="svg4176"
   inkscape:version="0.48.4 r9939"
   sodipodi:docname="django_logo.svg">
  <defs
     id="defs4184" />
  <sodipodi:namedview
     pagecolor="#ffffff"
     bordercolor="#666666"
     borderopacity="1"
     objecttolerance="10"
     gridtolerance="10"
     guidetolerance="10"
     inkscape:pageopacity="0"
     inkscape:pageshadow="2"
     inkscape:window-width="1384"
     inkscape:window-height="956"
     id="namedview4182"
     showgrid="false"
     inkscape:zoom="0.98084663"
     inkscape:cx="67.289163"
     inkscape:cy="-23.006794"
     inkscape:window-x="93"
     inkscape:window-y="65"
     inkscape:window-maximized="0"
     inkscape:current-layer="svg4176"
     fit-margin-top="0"
     fit-margin-left="0"
     fit-margin-right="0"
     fit-margin-bottom="0" />
  <metadata
     id="metadata4178">
    <rdf:RDF>
      <cc:Work
         rdf:about="">
        <dc:format>image/svg+xml</dc:format>
        <dc:type
           rdf:resource="http://purl.org/dc/dcmitype/StillImage" />
        <dc:title />
      </cc:Work>
    </rdf:RDF>
  </metadata>
  <path
     d="m 131.11502,76.575448 c -1.83913,-0.193962 -3.576,-0.563265 -5.6703,-1.205982 l -1.859,-0.570447 v -4.790604 -4.790609 l 1.14703,0.520541 c 1.49802,0.679795 3.81564,1.433699 5.49794,1.788422 1.9114,0.403022 6.91381,0.404596 8.38532,0.0027 2.87138,-0.784382 4.47608,-2.307489 5.28808,-5.019227 0.24278,-0.810777 0.61769,-3.797973 0.49239,-3.923281 -0.0309,-0.03087 -0.68558,0.159574 -1.45487,0.423247 -3.17628,1.088689 -7.65016,1.044199 -10.97129,-0.10916 -5.86025,-2.035046 -9.17566,-7.307738 -9.17566,-14.592576 0,-9.064956 4.95646,-15.015573 14.47651,-17.380231 2.911,-0.723055 4.66428,-0.886028 9.4928,-0.882407 3.47617,0.0025 5.12506,0.07243 6.80319,0.288278 2.37713,0.305685 6.22865,0.979198 6.36198,1.112522 0.0447,0.04464 -0.69616,1.704804 -1.64629,3.689176 l -1.72752,3.607943 -1.22502,-0.05675 -1.22503,-0.05675 0.11299,2.271744 c 0.21024,4.227693 0.16061,22.519406 -0.0659,24.295166 -0.95953,7.52162 -4.55132,12.227663 -10.94817,14.34442 -3.19865,1.058464 -7.9781,1.467159 -12.08916,1.033814 z m 11.45632,-25.309353 c 0.39158,-0.08876 0.98223,-0.233085 1.31252,-0.320605 l 0.60055,-0.159123 -0.0904,-5.727182 c -0.0497,-3.149945 -0.1322,-6.893292 -0.18321,-8.318527 l -0.0927,-2.591343 -1.52485,0.10865 c -2.09231,0.149075 -3.3549,0.463176 -4.87136,1.211876 -2.95689,1.459845 -4.32996,3.962584 -4.32449,7.882373 0.007,4.302165 1.68223,6.960903 4.94193,7.838669 0.98016,0.263921 3.22433,0.303823 4.2321,0.07524 z M 36.572614,71.669641 c -2.564461,-1.218305 -4.689835,-2.242284 -4.723067,-2.275519 -0.03322,-0.03313 0.463055,-0.322738 1.102851,-0.643368 3.355115,-1.68138 5.60805,-3.672978 6.81957,-6.028495 1.958663,-3.808139 2.169535,-6.143365 2.172952,-24.062686 l 0.0024,-12.063774 h 5.241143 5.241144 l -0.08787,14.753386 c -0.05312,8.918534 -0.156964,15.441754 -0.262597,16.49369 -0.781264,7.781529 -3.241567,11.905822 -9.096796,15.24932 -0.779505,0.445118 -1.49147,0.805526 -1.582139,0.800898 -0.09067,-0.0049 -2.263047,-1.005224 -4.827509,-2.223529 z M 173.89697,60.350066 c -7.70599,-0.734114 -12.7667,-4.966203 -14.42208,-12.060598 -0.46093,-1.975433 -0.57798,-6.351905 -0.22879,-8.556458 1.10908,-7.002464 5.22308,-11.680184 11.79503,-13.411206 2.09806,-0.552621 6.51813,-0.692058 8.82521,-0.278396 4.65106,0.833948 8.02443,2.954426 10.30382,6.476916 3.80388,5.878375 3.56825,15.804047 -0.51046,21.502028 -1.45714,2.035661 -3.94566,3.996503 -6.33361,4.990606 -2.61728,1.089585 -6.39871,1.625818 -9.4291,1.337135 z m 4.46106,-8.792924 c 1.70856,-0.782966 2.78066,-2.216834 3.48506,-4.661092 0.30497,-1.058236 0.35605,-1.610143 0.35605,-3.846067 0,-2.25041 -0.0501,-2.784463 -0.36301,-3.871468 -0.91151,-3.165975 -2.645,-4.80379 -5.38786,-5.090487 -1.76569,-0.184552 -3.8849,0.701261 -4.97459,2.079351 -0.65933,0.833847 -1.33178,2.378304 -1.60619,3.689111 -0.30638,1.463531 -0.31564,4.960605 -0.0169,6.357747 0.64275,3.005537 2.10701,4.899163 4.34222,5.615523 1.13444,0.363581 3.05053,0.238162 4.16517,-0.272643 z m -111.915404,8.41371 c -5.67337,-0.504868 -8.744642,-2.61524 -9.699273,-6.664861 -0.308622,-1.309124 -0.309909,-4.483591 -0.0027,-5.788087 1.035586,-4.392299 4.973955,-6.983552 12.545948,-8.254626 1.46882,-0.246565 4.55761,-0.64325 5.00864,-0.64325 0.0469,0 0.0852,-0.658567 0.0851,-1.463478 -3.2e-4,-1.637 -0.23632,-2.31578 -1.00015,-2.876154 -0.38084,-0.279389 -0.72985,-0.336112 -2.36858,-0.384928 -3.885307,-0.115664 -6.668789,0.550619 -12.2546,2.933679 -0.155213,0.06619 -0.19777,-0.772293 -0.19777,-3.896591 v -3.980974 l 0.909734,-0.402705 c 4.066654,-1.800191 8.023973,-2.620379 12.696616,-2.631513 4.11823,-0.0102 6.59348,0.563562 8.62041,1.996857 1.74749,1.235698 2.62831,3.000399 2.93096,5.872074 0.0831,0.787672 0.15217,6.779669 0.15368,13.315564 l 0.002,11.883431 -0.90972,0.09947 c -4.70539,0.514195 -7.41978,0.74962 -10.24431,0.8885 -3.63816,0.178894 -4.24226,0.178662 -6.277067,-0.0027 z m 7.247325,-7.45132 1.16561,-0.173355 0,-3.472845 0,-3.472845 -0.90973,0.106864 c -3.48298,0.409067 -5.694509,0.995725 -6.920529,1.835808 -0.997569,0.683547 -1.514919,2.086709 -1.200255,3.255317 0.32189,1.195373 1.105325,1.849592 2.528419,2.111332 0.854515,0.15716 3.677225,0.0565 5.336485,-0.190251 z M 19.015127,59.814609 C 12.496141,59.183882 8.1056171,56.936415 5.4881321,52.890241 3.9779541,50.555679 3.2393021,47.899885 3.0813141,44.236534 2.7159941,35.766205 6.7707701,29.35231 14.023165,26.928863 17.295825,25.83524 21.143154,25.579302 24.74143,26.215857 l 0.593301,0.104951 v -7.852261 -7.852264 h 5.221044 5.221045 v 23.956715 23.956715 l -0.435086,0.09131 c -4.742018,0.995055 -12.509185,1.562872 -16.326636,1.193553 z m 5.251676,-8.324201 1.067941,-0.10087 0,-8.343648 0,-8.343649 -0.751513,-0.195338 c -0.413334,-0.107375 -1.392283,-0.229452 -2.17544,-0.271127 -5.393136,-0.286978 -8.780847,3.113587 -8.780847,8.814207 0,2.611772 0.702318,4.737325 2.053948,6.216221 1.745164,1.909492 4.463074,2.613571 8.585903,2.224192 z m 64.669688,-7.643253 0,-15.657013 0.59331,-0.158294 c 8.00123,-2.134735 16.782139,-2.742775 21.710779,-1.503367 4.17596,1.050138 6.87629,3.521902 7.86072,7.195303 0.2455,0.916099 0.27902,2.281309 0.32903,13.400239 l 0.0558,12.380199 h -5.14201 -5.142 l -0.0512,-10.877175 c -0.0465,-9.888959 -0.0766,-10.952845 -0.33033,-11.710025 -0.36313,-1.083333 -1.01327,-1.805852 -2.04433,-2.271885 -0.75295,-0.34032 -1.0342,-0.374126 -2.96765,-0.356681 -1.54031,0.0139 -2.44471,0.102146 -3.24336,0.316422 l -1.107499,0.297155 -0.0405,12.301092 -0.0405,12.301097 h -5.22006 -5.22009 V 43.847205 z m -46.989396,-27.933008 0,-5.302315 5.181486,0.04171 5.181488,0.04171 0.04172,5.260588 0.04172,5.260589 h -5.223233 -5.223174 v -5.302315 z"
     id="path4180"
     inkscape:connector-curvature="0"
     style="fill:#ffffff" />
</svg>
