<?xml version="1.0" encoding="UTF-8" standalone="no"?>
<!-- Created with Inkscape (http://www.inkscape.org/) -->

<svg
   xmlns:dc="http://purl.org/dc/elements/1.1/"
   xmlns:cc="http://creativecommons.org/ns#"
   xmlns:rdf="http://www.w3.org/1999/02/22-rdf-syntax-ns#"
   xmlns:svg="http://www.w3.org/2000/svg"
   xmlns="http://www.w3.org/2000/svg"
   xmlns:sodipodi="http://sodipodi.sourceforge.net/DTD/sodipodi-0.dtd"
   xmlns:inkscape="http://www.inkscape.org/namespaces/inkscape"
   id="svg2"
   version="1.1"
   inkscape:version="0.48.4 r9939"
   width="39"
   height="34"
   sodipodi:docname="gimp.svg">
  <metadata
     id="metadata8">
    <rdf:RDF>
      <cc:Work
         rdf:about="">
        <dc:format>image/svg+xml</dc:format>
        <dc:type
           rdf:resource="http://purl.org/dc/dcmitype/StillImage" />
        <dc:title />
      </cc:Work>
    </rdf:RDF>
  </metadata>
  <defs
     id="defs6" />
  <sodipodi:namedview
     pagecolor="#ffffff"
     bordercolor="#666666"
     borderopacity="1"
     objecttolerance="10"
     gridtolerance="10"
     guidetolerance="10"
     inkscape:pageopacity="0"
     inkscape:pageshadow="2"
     inkscape:window-width="1855"
     inkscape:window-height="1056"
     id="namedview4"
     showgrid="false"
     inkscape:zoom="14.515625"
     inkscape:cx="17.322204"
     inkscape:cy="15.41538"
     inkscape:window-x="65"
     inkscape:window-y="24"
     inkscape:window-maximized="1"
     inkscape:current-layer="svg2" />
  <path
     style="fill:#ffffff"
     d="M 34.091314,26.094283 C 33.213025,25.67781 32.083802,25.188045 31.207793,24.843651 30.810789,24.687567 30.363145,24.489794 30.213017,24.404145 29.879902,24.214091 29.52053,23.840611 29.346709,23.503814 29.197246,23.214224 29.05415,22.700226 29.05415,22.452962 c 0,-0.519515 0.347701,-1.228421 0.734162,-1.496825 0.601653,-0.417861 1.632514,-0.464005 2.365715,-0.105891 0.701042,0.342406 1.217264,1.072237 1.671617,2.363349 0.191511,0.544183 0.948937,3.117747 0.930436,3.161394 -0.0067,0.0158 -0.305848,-0.110512 -0.664766,-0.280706 z M 31.42244,22.556809 c 0.212009,-0.05748 0.468644,-0.289245 0.549753,-0.496498 0.103961,-0.265619 0.06782,-0.610796 -0.08636,-0.824859 -0.240269,-0.333593 -0.738596,-0.46058 -1.098646,-0.279956 -0.97372,0.488475 -0.418879,1.887076 0.63525,1.601313 z M 18.315755,23.636825 C 14.55935,23.307811 10.471456,21.803207 7.2249124,19.554675 L 6.860473,19.302272 6.5285773,19.343891 C 5.6865214,19.449486 4.6410713,19.177279 3.6863045,18.603849 1.9894799,17.584744 0.72496235,15.744086 0.37821455,13.788526 0.2870893,13.274621 0.29474064,12.455257 0.39508782,11.977175 0.91698325,9.4915227 3.3729929,8.5962995 5.8754804,9.9795562 c 0.4063017,0.2245818 0.6576219,0.4040328 1.1593402,0.8278118 0.885305,0.74777 1.6562186,1.876741 2.0492709,3.001055 0.1433091,0.409934 0.1498132,0.419998 0.3405899,0.527099 0.294764,0.165469 0.8658706,0.335957 1.2968696,0.387142 0.672267,0.07983 1.404123,-0.04839 2.049238,-0.359092 0.409264,-0.197098 0.897716,-0.562938 1.167711,-0.874595 l 0.207779,-0.239847 0.150994,0.258382 c 0.641366,1.09754 1.695488,1.850455 2.952093,2.108552 0.386819,0.07947 1.234512,0.08282 1.633511,0.0065 1.623346,-0.310594 2.93641,-1.509524 3.389636,-3.095 C 22.625694,11.292071 22.418506,10.012153 21.68071,8.8716456 21.460488,8.5312462 21.01387,8.079354 20.636786,7.815411 20.487572,7.7109653 20.350599,7.6128338 20.332399,7.5973379 c -0.01822,-0.015475 0.134045,-0.058231 0.338311,-0.094971 0.612942,-0.1102469 1.780551,-0.4044916 2.388029,-0.6018058 2.336687,-0.7589949 4.257097,-1.9609128 5.493266,-3.4380502 0.619764,-0.7405715 1.102908,-1.5533261 1.385483,-2.3306921 0.22263,-0.61246227 0.383459,-0.86142447 0.644965,-0.99842411 0.121118,-0.0634604 0.378245,-0.0739858 0.516799,-0.0211711 0.214262,0.0816773 0.432994,0.39715958 0.508289,0.73312357 0.04823,0.21525594 0.175879,1.49187744 0.263428,2.63475004 0.08674,1.1322725 0.121613,4.2590789 0.05962,5.3446883 -0.167997,2.9414875 -0.646374,5.3574955 -1.479345,7.4712775 -0.401812,1.019669 -1.122645,2.324496 -1.710336,3.096003 -0.129848,0.170453 -0.236081,0.316672 -0.236081,0.324926 0,0.0083 0.246267,0.143695 0.547262,0.300978 0.640535,0.334707 1.442794,0.800791 1.442794,0.838213 0,0.01435 -0.06716,0.0729 -0.149253,0.130139 -0.609097,0.424625 -1.141033,1.521304 -1.044958,2.154362 0.01504,0.09915 0.02056,0.180284 0.01224,0.180284 -0.0281,0 -0.706275,-0.267134 -1.10662,-0.435896 -0.218905,-0.09228 -0.777327,-0.356314 -1.240943,-0.586746 l -0.842933,-0.418975 -0.331203,0.199 c -1.307643,0.785706 -2.763049,1.272472 -4.490418,1.501849 -0.588557,0.07815 -2.356727,0.111742 -2.985084,0.05672 z M 3.5113418,14.222163 C 4.4999919,13.928559 4.9610534,12.591016 4.4221439,11.579919 4.2584947,11.272884 3.9577913,10.961304 3.7188584,10.851217 3.439092,10.722313 2.8850059,10.726238 2.6341101,10.85885 c -0.8475267,0.448149 -1.1810542,1.593905 -0.730598,2.509791 0.3473227,0.706192 0.9774417,1.040668 1.6078297,0.853468 z m 14.9551932,-0.03766 c -0.391494,-0.09492 -0.779418,-0.319148 -1.090442,-0.630312 -0.665166,-0.665456 -0.861932,-1.601425 -0.522444,-2.485111 l 0.08676,-0.225828 0.02603,0.278609 c 0.04761,0.509263 0.300846,0.885054 0.743166,1.102808 0.229657,0.11307 0.307317,0.131035 0.566335,0.131035 0.258925,0 0.336707,-0.018 0.565904,-0.130822 0.506365,-0.249281 0.766642,-0.68598 0.740446,-1.242324 -0.01687,-0.358849 -0.128501,-0.615303 -0.375097,-0.861897 -0.2036,-0.2035988 -0.432685,-0.3253338 -0.674658,-0.3584964 -0.237926,-0.03262 -0.182658,-0.07817 0.161325,-0.1329765 0.840458,-0.1339157 1.73296,0.2647521 2.228622,0.9954939 0.634219,0.935005 0.522112,2.129753 -0.274885,2.929505 -0.578336,0.580337 -1.403557,0.818823 -2.181062,0.630316 z m -6.914292,-0.69985 c -0.359704,-0.05966 -0.784042,-0.290574 -1.080216,-0.587804 -0.6272459,-0.629487 -0.7757685,-1.561639 -0.37487,-2.352776 0.11617,-0.229242 0.149046,-0.252862 0.09639,-0.06924 -0.05303,0.184982 -0.04593,0.343797 0.02621,0.58683 0.0918,0.309149 0.435142,0.646224 0.752066,0.738355 0.396545,0.115278 0.758314,0.02765 1.069316,-0.25902 0.253691,-0.233841 0.358271,-0.472043 0.358757,-0.817142 4.75e-4,-0.336552 -0.11785,-0.600832 -0.371719,-0.8301788 -0.191175,-0.1727236 -0.291496,-0.2187946 -0.617928,-0.283796 l -0.238809,-0.047558 0.159206,-0.048174 c 0.08756,-0.02648 0.29353,-0.058058 0.457709,-0.070114 0.718864,-0.052803 1.454613,0.3210664 1.852708,0.9415178 0.114251,0.178078 0.114851,0.182235 0.103127,0.72382 -0.0065,0.299593 0.0089,0.680039 0.0338,0.845431 0.04464,0.29467 0.0433,0.304896 -0.06655,0.509066 -0.261712,0.486324 -0.914014,0.936585 -1.485259,1.025228 -0.295559,0.04588 -0.37387,0.04538 -0.673939,-0.0045 z M 7.8719211,8.905639 C 7.8800111,8.81112 7.9140521,7.3815482 7.9475301,5.7288054 7.9810481,4.0760625 8.0197451,2.5357613 8.0335511,2.305909 L 8.0586481,1.887996 8.464163,2.7242864 c 0.6047819,1.2472348 0.9834624,1.8074061 1.771961,2.6211998 0.895508,0.9242408 1.725116,1.5093055 2.779097,1.9599068 0.685387,0.2930094 1.765141,0.572676 2.211066,0.572676 l 0.17018,0 -0.4003,0.4045195 -0.400301,0.4045197 -0.250498,-0.042916 C 14.107643,8.6034608 14.077608,8.5849379 13.75616,8.2806665 12.99054,7.5559464 12.092769,7.2011585 11.01225,7.1963202 10.646661,7.1945979 10.082298,7.2833081 9.9774231,7.3588224 9.9555161,7.3745772 9.8212001,7.4297747 9.6789141,7.4814585 9.5366227,7.5331427 9.3127444,7.6374563 9.1813979,7.7132708 8.8822636,7.8859262 8.2519894,8.4935938 8.0272332,8.8260315 L 7.8572316,9.0774741 z"
     id="path3998"
     inkscape:connector-curvature="0"
     sodipodi:nodetypes="scccsssccsccssccscssscssscccsccccscscsssscccssscsssccsssccscccsscsccssccccsccscsssscscccsssccccccccccccccccsscsccccsccscccc" />
</svg>
