<?xml version="1.0" encoding="UTF-8" standalone="no"?>
<!-- Created with Inkscape (http://www.inkscape.org/) -->

<svg
   xmlns:dc="http://purl.org/dc/elements/1.1/"
   xmlns:cc="http://creativecommons.org/ns#"
   xmlns:rdf="http://www.w3.org/1999/02/22-rdf-syntax-ns#"
   xmlns:svg="http://www.w3.org/2000/svg"
   xmlns="http://www.w3.org/2000/svg"
   xmlns:sodipodi="http://sodipodi.sourceforge.net/DTD/sodipodi-0.dtd"
   xmlns:inkscape="http://www.inkscape.org/namespaces/inkscape"
   id="svg2"
   version="1.1"
   inkscape:version="0.48.4 r9939"
   width="39"
   height="34"
   sodipodi:docname="nyt.svg">
  <metadata
     id="metadata8">
    <rdf:RDF>
      <cc:Work
         rdf:about="">
        <dc:format>image/svg+xml</dc:format>
        <dc:type
           rdf:resource="http://purl.org/dc/dcmitype/StillImage" />
        <dc:title></dc:title>
      </cc:Work>
    </rdf:RDF>
  </metadata>
  <defs
     id="defs6" />
  <sodipodi:namedview
     pagecolor="#ffffff"
     bordercolor="#666666"
     borderopacity="1"
     objecttolerance="10"
     gridtolerance="10"
     guidetolerance="10"
     inkscape:pageopacity="0"
     inkscape:pageshadow="2"
     inkscape:window-width="1855"
     inkscape:window-height="1056"
     id="namedview4"
     showgrid="false"
     inkscape:zoom="13.088408"
     inkscape:cx="28.047683"
     inkscape:cy="17.807203"
     inkscape:window-x="65"
     inkscape:window-y="24"
     inkscape:window-maximized="1"
     inkscape:current-layer="svg2" />
  <path
     style="fill:#ffffff"
     d="m 17.951624,27.38938 c -4.363439,-0.142976 -7.502972,-1.458882 -8.1899658,-3.432744 -0.109717,-0.315244 -0.127783,-0.43149 -0.128283,-0.825504 -7.9e-4,-0.535663 0.06834,-0.848378 0.285357,-1.29288 0.4627018,-0.947726 1.4765888,-1.563618 3.3428548,-2.030641 0.624363,-0.156243 0.746023,-0.199718 0.756675,-0.270395 0.01064,-0.07054 -0.04237,-0.100267 -0.326327,-0.183054 -1.584179,-0.461846 -2.579794,-1.681025 -2.579794,-3.159082 0,-0.746638 0.214521,-1.357246 0.742112,-2.11234 0.316078,-0.45237 1.187446,-1.298297 1.792755,-1.740407 0.654054,-0.477715 0.657143,-0.497592 0.130133,-0.837423 -1.367178,-0.8816 -2.273938,-2.2567365 -2.560722,-3.8834375 -0.117521,-0.666613 -0.09996,-1.7615402 0.03873,-2.4148169 0.567475,-2.6729719 2.711985,-4.40365377 6.100706,-4.92344978 0.824923,-0.12653494 2.338477,-0.13866679 3.045716,-0.0244117 0.769991,0.12438832 1.429495,0.2848877 2.202407,0.53598401 0.458567,0.148971 0.798234,0.23489837 0.92856,0.23489837 0.113023,0 1.255461,-0.20558637 2.538751,-0.45685725 1.283286,-0.25127097 2.397537,-0.45685728 2.476113,-0.45685728 l 0.142863,0 0,1.82742913 0,1.8274291 -0.23391,0 c -0.188402,0 -0.519245,-0.1015822 -1.700495,-0.522123 -0.80662,-0.2871665 -1.484546,-0.522123 -1.506498,-0.522123 -0.09912,0 -0.02205,0.1319698 0.173214,0.2966237 0.284742,0.240099 0.80962,0.8707951 1.062956,1.2772556 0.223584,0.3587249 0.428375,0.8751919 0.538883,1.3590111 0.09997,0.4376785 0.09864,1.6471681 -0.0024,2.1996146 -0.544081,2.9743098 -3.169203,4.7804168 -7.207816,4.9590398 -1.305854,0.05775 -2.553521,-0.03619 -3.388019,-0.255108 l -0.32055,-0.08409 -0.210663,0.197051 c -0.810218,0.757865 -0.772417,1.735594 0.08339,2.15703 l 0.287756,0.141704 4.047448,0.0246 c 4.319799,0.02626 4.263753,0.02355 5.244445,0.252967 2.05533,0.480798 3.232338,1.70068 3.594439,3.725369 0.105307,0.588834 0.107884,1.997508 0.0047,2.589376 -0.241351,1.384867 -0.745478,2.377237 -1.680754,3.308559 -0.533299,0.531042 -0.970214,0.849732 -1.663527,1.213396 -1.855466,0.973242 -4.499222,1.410572 -7.861267,1.300408 z m 2.471704,-2.345073 c 2.398951,-0.221613 3.524328,-1.171108 3.524328,-2.973517 0,-0.626094 -0.187655,-0.96433 -0.665079,-1.198769 -0.531778,-0.26113 -0.532302,-0.261161 -4.433154,-0.261992 l -3.553619,-7.9e-4 -0.192371,0.293694 c -0.336852,0.514268 -0.469361,0.986859 -0.470157,1.676823 -3.84e-4,0.331196 0.02145,0.5078 0.08577,0.693747 0.321961,0.930867 1.384672,1.553711 2.984901,1.749422 0.589527,0.0721 2.046205,0.08353 2.719388,0.02135 z M 19.761515,10.51664 c 1.068048,-0.20255 1.488162,-1.158205 1.559656,-3.547821 0.0564,-1.8850559 -0.154554,-3.3031896 -0.588983,-3.9594283 -0.343067,-0.5182363 -0.785986,-0.7179202 -1.59241,-0.7179202 -0.815351,0 -1.258388,0.2049886 -1.596987,0.738903 -0.176426,0.2781941 -0.364687,0.9002837 -0.455573,1.5053893 -0.09834,0.6547508 -0.113647,3.1522176 -0.02317,3.7818735 0.197059,1.3715025 0.577503,1.9921507 1.336063,2.1796137 0.264555,0.06538 1.059233,0.0767 1.361413,0.01939 z"
     id="path3671"
     inkscape:connector-curvature="0" />
</svg>
