<?xml version="1.0" encoding="UTF-8" standalone="no"?>
<!-- Created with Inkscape (http://www.inkscape.org/) -->

<svg
   xmlns:dc="http://purl.org/dc/elements/1.1/"
   xmlns:cc="http://creativecommons.org/ns#"
   xmlns:rdf="http://www.w3.org/1999/02/22-rdf-syntax-ns#"
   xmlns:svg="http://www.w3.org/2000/svg"
   xmlns="http://www.w3.org/2000/svg"
   xmlns:sodipodi="http://sodipodi.sourceforge.net/DTD/sodipodi-0.dtd"
   xmlns:inkscape="http://www.inkscape.org/namespaces/inkscape"
   height="34"
   width="39"
   version="1.1"
   id="svg12875"
   inkscape:version="0.48.4 r9939"
   sodipodi:docname="inkscape.svg">
  <defs
     id="defs12889" />
  <sodipodi:namedview
     pagecolor="#ffffff"
     bordercolor="#666666"
     borderopacity="1"
     objecttolerance="10"
     gridtolerance="10"
     guidetolerance="10"
     inkscape:pageopacity="0"
     inkscape:pageshadow="2"
     inkscape:window-width="1101"
     inkscape:window-height="935"
     id="namedview12887"
     showgrid="false"
     inkscape:zoom="7.5522999"
     inkscape:cx="19.5"
     inkscape:cy="8.0034119"
     inkscape:window-x="65"
     inkscape:window-y="24"
     inkscape:window-maximized="0"
     inkscape:current-layer="svg12875" />
  <metadata
     id="metadata12877">
    <rdf:RDF>
      <cc:Work
         rdf:about="">
        <dc:format>image/svg+xml</dc:format>
        <dc:type
           rdf:resource="http://purl.org/dc/dcmitype/StillImage" />
        <dc:title />
      </cc:Work>
    </rdf:RDF>
  </metadata>
  <path
     inkscape:connector-curvature="0"
     d="M 19.211731,0.13118895 C 18.316438,0.12957545 17.429995,0.45571052 16.787518,1.1133051 L 6.0985884,12.050872 c -3.6114058,4.472288 2.4580297,3.950647 5.0597736,5.238791 0.933288,0.953971 -3.5787865,1.658411 -2.6455029,2.613179 0.933287,0.953971 5.6440709,1.838226 6.5789489,2.792197 0.933288,0.953971 -1.910433,1.965031 -0.977145,2.919007 0.933288,0.953972 3.091658,0.0503 3.495843,2.252657 0.28802,1.573774 3.889985,0.677286 5.651528,-0.611652 0.933288,-0.954768 -1.783623,-0.866052 -0.85034,-1.820023 2.320883,-2.373394 4.479556,-0.861582 5.273605,-3.239748 0.392248,-1.17516 -3.416281,-1.810875 -2.481403,-2.764851 2.685284,-1.568205 11.967417,-2.590301 7.563553,-6.994172 L 21.688162,1.1133051 C 21.010672,0.46287082 20.107023,0.13297899 19.211731,0.13118895 z m -0.02485,1.04179265 c 0.678719,-0.027768 1.367478,0.212437 1.854832,0.7061317 l 4.229322,4.2939699 c 0.401005,0.4097501 0.395931,1.2037996 0.171562,1.432148 L 23.341612,5.9269309 22.928876,8.4133063 21.17598,7.4883753 18.366378,9.2636466 17.43647,5.5216515 l -1.50923,2.6106934 -2.307355,0 c -0.940448,0 -1.050942,-1.1942576 -0.196424,-2.0487765 1.492623,-1.6111672 3.203943,-3.2528726 4.134842,-4.2044551 0.438596,-0.4482959 1.029704,-0.6816421 1.628578,-0.7061317 z M 14.229044,17.881419 c 0.285638,0.177428 4.605665,1.055714 5.661477,1.230753 0.365995,0.07717 0.106617,0.454016 -0.397818,0.708618 -1.137766,0.302346 -6.656025,-1.939371 -5.263659,-1.939371 z m 16.797952,3.006026 c -0.869238,0.02992 -1.725444,0.475194 -1.961751,1.307835 0,0.542625 3.998089,0.897082 3.998089,-0.129291 -0.284837,-0.824282 -1.167104,-1.20848 -2.036338,-1.178544 z m -18.329557,2.352112 c -1.253005,-0.01166 -2.7243199,0.903774 -1.64349,1.839919 0.946812,0.818713 2.4085,-0.205077 2.846898,-1.347615 -0.258009,-0.342821 -0.713098,-0.487758 -1.203408,-0.492304 z m 15.865559,0.06961 c -1.220509,1.094799 0.137146,2.206605 1.340154,1.499281 0.268134,-0.272108 -0.0074,-1.227174 -1.340154,-1.499281 z"
     id="path5"
     style="fill:#ffffff" />
</svg>
