<?xml version="1.0" encoding="UTF-8" standalone="no"?>
<!-- Created with Inkscape (http://www.inkscape.org/) -->

<svg
   xmlns:dc="http://purl.org/dc/elements/1.1/"
   xmlns:cc="http://creativecommons.org/ns#"
   xmlns:rdf="http://www.w3.org/1999/02/22-rdf-syntax-ns#"
   xmlns:svg="http://www.w3.org/2000/svg"
   xmlns="http://www.w3.org/2000/svg"
   xmlns:sodipodi="http://sodipodi.sourceforge.net/DTD/sodipodi-0.dtd"
   xmlns:inkscape="http://www.inkscape.org/namespaces/inkscape"
   id="svg2"
   version="1.1"
   inkscape:version="0.48.4 r9939"
   width="39"
   height="34"
   sodipodi:docname="washington-post-logo-thumb.jpg.svg">
  <metadata
     id="metadata8">
    <rdf:RDF>
      <cc:Work
         rdf:about="">
        <dc:format>image/svg+xml</dc:format>
        <dc:type
           rdf:resource="http://purl.org/dc/dcmitype/StillImage" />
        <dc:title></dc:title>
      </cc:Work>
    </rdf:RDF>
  </metadata>
  <defs
     id="defs6" />
  <sodipodi:namedview
     pagecolor="#ffffff"
     bordercolor="#666666"
     borderopacity="1"
     objecttolerance="10"
     gridtolerance="10"
     guidetolerance="10"
     inkscape:pageopacity="0"
     inkscape:pageshadow="2"
     inkscape:window-width="894"
     inkscape:window-height="790"
     id="namedview4"
     showgrid="false"
     inkscape:zoom="9.2549019"
     inkscape:cx="28.047683"
     inkscape:cy="17.807203"
     inkscape:window-x="115"
     inkscape:window-y="95"
     inkscape:window-maximized="0"
     inkscape:current-layer="svg2" />
  <path
     style="fill:#ffffff"
     d="M 15.213481,29.539324 C 11.755015,28.914062 8.40025,26.981604 6.1008702,24.29015 L 5.2399084,23.282383 5.8192387,23.080429 c 0.405352,-0.141307 0.5085097,-0.245726 0.3435032,-0.347706 -0.1297061,-0.08017 -0.321448,-0.104317 -0.4260958,-0.05367 -0.104643,0.05064 0.2058022,-0.281624 0.6898888,-0.73837 0.9931735,-0.937086 0.8378597,-1.034906 -0.5887537,-0.370809 -0.5388762,0.250851 -1.0198281,0.416038 -1.0687818,0.367086 -0.048953,-0.04895 0.2080796,-0.587725 0.5711844,-1.19727 0.3631036,-0.609544 0.6601889,-1.14614 0.6601889,-1.192434 0,-0.151431 -0.798036,0.322489 -1.8011026,1.069599 -0.6133145,0.45681 -0.9388403,0.615377 -0.8642414,0.420978 0.1301939,-0.33928 1.5706912,-2.424839 2.2548238,-3.264546 0.2339952,-0.287207 0.3865692,-0.561071 0.3390524,-0.608588 -0.089839,-0.08985 -2.1446252,0.914398 -3.5567568,1.738311 l -0.8134716,0.474623 0.5215001,-0.904271 c 0.5881378,-1.019817 1.4927053,-2.211691 2.4435229,-3.219631 0.5427921,-0.575399 0.5874073,-0.680447 0.2877476,-0.677502 -0.1950566,0.0019 -1.1232225,0.411452 -2.0625916,0.910078 -0.939368,0.498631 -1.7452649,0.869275 -1.79088349,0.823657 -0.0914569,-0.09146 1.16696949,-1.682006 1.40185939,-1.771832 0.080807,-0.0309 0.7008096,-0.576272 1.3777816,-1.211931 1.1998874,-1.126664 1.215282,-1.152406 0.6118269,-1.023039 -0.3404664,0.07299 -1.4566454,0.526098 -2.4803979,1.006911 -1.02375376,0.480814 -1.86136954,0.814486 -1.86136954,0.741494 0,-0.316971 1.97953784,-2.308465 3.81690554,-3.83996 1.0968082,-0.9142176 1.994197,-1.6936132 1.994197,-1.7319879 0,-0.038375 -0.1021434,-0.034064 -0.2269953,0.00954 C 4.6782815,8.8084905 0.67675343,9.8544032 0.6128809,9.7905307 0.50188643,9.6795362 4.2943025,6.2522302 6.2727679,4.6755232 9.5984507,2.0251729 11.118347,1.1104127 13.328778,0.42881596 c 1.903857,-0.58706437 3.387962,-0.51881702 5.820109,0.26764012 2.290835,0.74076252 2.549311,0.76512522 4.579271,0.43162252 1.334388,-0.21922727 1.554722,-0.21180349 2.313436,0.077957 1.441705,0.5505915 2.67806,2.4229192 2.381136,3.6059702 -0.184276,0.7342081 1.519759,1.8946876 4.467061,3.0421497 3.336272,1.2988984 4.153229,1.6657513 4.876835,2.1899285 0.674444,0.488565 0.714063,0.572705 0.82364,1.74915 0.06331,0.679743 0.199034,1.780195 0.301604,2.445448 0.179768,1.165961 0.162467,1.273945 -0.480036,2.99635 -0.837057,2.243964 -0.991897,2.422387 -2.102199,2.422387 -0.478017,0 -0.913095,0.07115 -0.96684,0.158109 -0.05375,0.08696 -0.595594,0.454696 -1.204111,0.817186 -1.358195,0.809073 -2.061487,0.83996 -4.621083,0.202937 -2.657132,-0.661294 -3.472481,-0.615663 -5.105393,0.285725 -1.433137,0.791111 -2.279628,1.529515 -2.712083,2.365792 -0.148596,0.287354 -0.470184,1.368933 -0.714639,2.403508 -0.244455,1.034578 -0.528807,2.10289 -0.631893,2.374026 -0.142766,0.375501 -0.121553,0.620366 0.08902,1.027561 l 0.276445,0.534586 -2.04763,-0.01629 c -1.126195,-0.0089 -2.682271,-0.131033 -3.457941,-0.271267 z m 1.870251,-1.664603 c -0.723956,-1.52027 -0.675319,-1.624844 0.352586,-0.7581 0.908088,0.765709 0.956388,0.78372 1.201775,0.448132 0.340848,-0.466136 0.322231,-0.755467 -0.06703,-1.041713 -0.406988,-0.299283 -1.55176,-1.727317 -1.86077,-2.321197 l -0.233903,-0.449535 0.436894,0.319348 c 0.240291,0.17564 0.804627,0.490149 1.254079,0.698907 0.449453,0.208756 0.960195,0.504732 1.134981,0.657722 0.174787,0.15299 0.318269,0.245069 0.318847,0.20462 0.01002,-0.698406 0.429155,-2.300117 0.674499,-2.577389 0.317083,-0.358344 0.312869,-0.362838 -0.221559,-0.236248 -0.299634,0.07098 -0.858734,0.334488 -1.242442,0.585586 -0.383708,0.251097 -0.732084,0.422107 -0.77417,0.380022 -0.246674,-0.246674 0.586477,-1.485564 1.384686,-2.059021 0.497378,-0.357329 0.904322,-0.683545 0.904322,-0.724924 0,-0.04138 -0.307174,-0.198141 -0.68261,-0.348361 -0.734883,-0.294042 -2.184227,-2.057847 -2.694514,-3.27914 -0.343918,-0.823109 -0.169775,-1.040526 0.352358,-0.439924 0.919696,1.057909 2.713793,2.190619 3.861921,2.438239 0.589482,0.127136 3.841412,-0.427778 5.37045,-0.916422 0.82418,-0.263385 0.871937,-0.257805 1.543575,0.180376 0.381193,0.248694 1.378182,0.671709 2.21553,0.940034 1.328002,0.425553 1.611151,0.461287 2.216938,0.279788 1.408345,-0.421949 1.039423,-0.875846 -1.197032,-1.472738 -3.796855,-1.013355 -5.183263,-1.60331 -6.310494,-2.685303 -0.624625,-0.599552 -0.680989,-0.620587 -0.680989,-0.25413 0,0.219739 0.295524,0.726637 0.65672,1.126439 0.632577,0.700186 0.640923,0.726872 0.226996,0.725897 -1.445733,-0.0034 -3.173419,-1.232046 -3.71068,-2.638843 -0.238082,-0.62341 -0.287914,-1.136982 -0.210125,-2.16554 0.120075,-1.58765 0.480248,-2.489883 0.489209,-1.225469 0.0047,0.670559 0.577981,2.217328 0.821736,2.217328 0.04534,0 0.207122,-0.241098 0.359504,-0.535773 0.51678,-0.999343 0.370608,-1.478328 -0.90869,-2.9776563 -0.65216,-0.7643295 -1.144126,-1.3896889 -1.093255,-1.3896889 0.457206,0 1.875135,0.7981483 2.914593,1.6406162 2.00093,1.621728 6.070243,4.237075 7.553174,4.85442 0.743451,0.3095 1.922262,0.654792 2.619582,0.767316 0.697318,0.112528 1.703215,0.288762 2.235326,0.391632 0.53211,0.102868 1.022422,0.132091 1.089581,0.06493 0.06716,-0.06716 0.122108,-0.684414 0.122108,-1.371671 0,-0.947927 -0.07671,-1.326272 -0.317794,-1.567354 -0.302663,-0.302662 -0.318106,-0.274866 -0.324326,0.583704 l -0.0065,0.901499 -0.443316,-0.542575 c -0.243824,-0.298416 -0.53674,-0.768116 -0.650921,-1.043777 -0.181649,-0.43854 -0.148112,-0.579198 0.268251,-1.12508 0.261725,-0.343133 0.475861,-0.750532 0.475861,-0.905331 0,-0.34376 -1.23768,-0.983132 -3.177947,-1.6416948 C 31.305426,8.8992519 28.770381,7.6726375 27.74505,6.8839718 27.269764,6.5183899 26.837866,6.2192784 26.785275,6.2192784 c -0.13764,0 0.194616,0.5731387 0.583308,1.0061946 0.182951,0.2038328 0.483474,0.5457928 0.66783,0.75991 l 0.33519,0.3893041 -0.970779,-0.092242 C 25.037463,8.0578989 23.433693,7.2226329 23.433693,6.2163092 c 0,-0.5281306 0.703118,-1.2682156 1.204871,-1.2682156 0.136348,0 0.247905,-0.081712 0.247905,-0.1815977 0,-0.317357 -0.923794,-0.1959502 -1.660789,0.218265 -0.858418,0.4824576 -0.98742,0.8899481 -0.615365,1.9438273 0.155356,0.4400631 0.239882,0.8426981 0.187834,0.8947455 C 22.6464,7.9750829 21.663448,6.9496701 21.437299,6.4037005 21.257501,5.9696266 21.103866,5.89134 20.261125,5.8043618 19.727977,5.7493355 19.060732,5.5832652 18.778359,5.4353148 L 18.264954,5.1663151 19.078753,4.9565848 C 21.111515,4.4327071 21.938035,4.1570527 22.790347,3.7187248 23.7536,3.2233419 25.43528,3.0603689 26.31277,3.3773637 L 26.740288,3.5318056 26.31277,2.9479762 C 25.885735,2.364806 25.883817,2.3642675 24.614074,2.4706094 c -0.75163,0.062948 -2.106167,0.3925427 -3.314145,0.8064161 -1.123632,0.384974 -2.042966,0.6387084 -2.042966,0.5638536 0,-0.074854 0.20172,-0.3758271 0.448265,-0.6688298 L 20.153491,2.6393169 18.661045,2.2561445 C 16.392763,1.6737834 15.932882,1.6274765 14.781,1.8654493 13.388462,2.1531413 12.197122,2.7700179 10.703581,3.9767435 9.617463,4.8542868 8.9059366,5.807523 8.9059366,6.3850601 c 0,0.189612 1.0905136,0.1290891 1.8159694,-0.100791 0.149819,-0.047467 -0.03002,0.2249256 -0.399631,0.6053309 -0.9913654,1.0203026 -1.4732919,2.2494214 -1.4816334,3.778792 -0.00386,0.699148 0.051645,1.516335 0.1232377,1.81597 l 0.1301709,0.54479 -0.4658063,-0.519463 C 8.3720522,12.223985 8.1152169,11.754103 8.0574954,11.465506 7.9038118,10.697085 7.6347577,10.825438 7.6347577,11.667175 c 0,0.797186 -0.1079274,0.890302 -0.4735969,0.408593 -0.2130715,-0.280687 -0.2419141,-0.229909 -0.2470158,0.434864 -0.00809,1.049146 0.5972437,2.874933 1.3458767,4.059663 0.3471246,0.549331 0.8491272,1.350533 1.115561,1.780448 l 0.4844283,0.781664 -0.4775599,1.125104 c -0.2626567,0.618806 -0.4773248,1.360386 -0.4770374,1.647958 l 5.446e-4,0.522856 1.3130057,-0.129381 1.313006,-0.12938 -0.359621,0.398521 c -0.197798,0.219186 -1.054234,0.749952 -1.9031999,1.179481 -1.1772335,0.595615 -1.4666584,0.811498 -1.219494,0.909618 0.1782444,0.07076 0.7094155,0.02836 1.1803802,-0.0942 1.5559317,-0.404937 1.5903247,-0.39564 0.6293044,0.170082 -0.5243619,0.308675 -0.9512779,0.620863 -0.9487035,0.693752 0.00254,0.07288 0.3907413,0.389965 0.8625862,0.704616 2.0925436,1.395413 4.7736956,2.330579 6.8795226,2.399528 l 0.755307,0.02473 -0.324288,-0.680988 z m -3.026897,-9.995692 c -1.381937,-1.266558 -1.555437,-1.611658 -1.351338,-2.687868 0.09334,-0.49221 0.162205,-1.425172 0.153019,-2.073249 -0.01769,-1.247842 0.250293,-1.997399 0.935944,-2.617904 l 0.385795,-0.34914 -0.295593,0.707456 c -0.541307,1.295528 -0.152849,2.490041 1.500512,4.614093 0.424042,0.544761 0.746603,1.014855 0.716803,1.044654 -0.0298,0.0298 -0.529834,-0.109473 -1.111187,-0.309482 -1.499167,-0.51579 -1.620359,-0.493913 -1.254788,0.226525 0.164714,0.324605 0.57527,0.978354 0.912346,1.452775 0.337076,0.474422 0.551712,0.859047 0.476971,0.854724 -0.07475,-0.0043 -0.555562,-0.392489 -1.068484,-0.862584 z m 1.179502,-8.4379811 c 0.26371,-0.1756567 0.908495,-0.4561653 1.432856,-0.6233537 0.524361,-0.1671873 0.953384,-0.3576553 0.953384,-0.4232618 0,-0.065604 -0.224726,-0.2248339 -0.499392,-0.3538396 L 16.623793,7.8060373 17.077786,7.6631211 C 17.327482,7.5845121 17.844237,7.467823 18.226134,7.4037995 L 18.920485,7.2873954 18.443887,6.6625419 C 18.181758,6.3188728 18.043852,6.037688 18.137433,6.037688 c 0.251019,0 2.390696,1.4581275 2.390696,1.6291884 0,0.080505 -0.286015,0.2000183 -0.63559,0.2655995 -0.349574,0.06558 -0.635589,0.1622714 -0.635589,0.2148694 0,0.052599 0.2001,0.4370576 0.444666,0.8543567 l 0.444665,0.7587242 -2.694708,0 c -2.632157,0 -2.683578,-0.00737 -2.215236,-0.3193759 z M 24.11766,8.595052 C 23.509802,8.0519314 23.495596,7.6660336 24.096987,8.0334504 24.2815,8.1461837 25.045355,8.431212 25.794443,8.6668578 l 1.361977,0.4284469 -1.222914,0.014768 c -1.105012,0.013343 -1.28008,-0.03631 -1.815844,-0.5150182 z M 14.740545,7.3883168 C 14.539225,7.1323799 14.28152,6.6412173 14.167867,6.2968417 L 13.961222,5.6707059 13.385741,6.0724426 c -0.316516,0.2209553 -0.63552,0.4873928 -0.7089,0.5920833 -0.08893,0.1268781 -0.134344,0.1186018 -0.136197,-0.024826 -0.0059,-0.4584371 0.371307,-1.1578158 0.999636,-1.8533014 0.73557,-0.8141876 1.899007,-1.1885018 3.355909,-1.0797001 l 0.817187,0.061028 -0.958418,0.5916082 c -1.08663,0.6707522 -1.311543,1.1007326 -1.311543,2.5073621 0,1.0953338 -0.158855,1.2132256 -0.70287,0.5216221 z M 36.690257,17.739974 c 0,-0.143923 -0.08172,-0.261678 -0.181596,-0.261678 -0.09988,0 -0.181598,0.168261 -0.181598,0.373912 0,0.205652 0.08172,0.323406 0.181598,0.261678 0.09987,-0.06173 0.181596,-0.229989 0.181596,-0.373912 z M 34.040568,17.08835 c -0.200205,-0.323937 -0.437226,-0.134758 -0.431683,0.344548 0.0054,0.473174 0.01946,0.481304 0.266578,0.154844 0.143442,-0.189502 0.217739,-0.414229 0.165105,-0.499392 z m 1.196914,0.480745 c 0.18515,-0.223093 0.172742,-0.272396 -0.06856,-0.272396 -0.162047,0 -0.294631,0.122578 -0.294631,0.272396 0,0.149817 0.03085,0.272396 0.06856,0.272396 0.03771,0 0.170293,-0.122579 0.29463,-0.272396 z m -2.542358,-0.670298 c 0,-0.08078 -0.08172,-0.146889 -0.181596,-0.146889 -0.09987,0 -0.181598,0.07503 -0.181598,0.166744 0,0.09171 -0.04753,0.316437 -0.105621,0.499392 -0.09665,0.304397 -0.08123,0.302711 0.181597,-0.01985 0.157971,-0.193877 0.287221,-0.418604 0.287221,-0.499392 z m -1.193097,-0.530659 c -0.1832,-0.296425 -0.441276,-0.165183 -0.441276,0.224409 0,0.320746 0.04538,0.34777 0.270397,0.161022 0.148717,-0.123426 0.225614,-0.29687 0.170879,-0.385431 z m -1.258461,-0.312351 c 0,-0.328449 -0.35544,-0.268487 -0.425936,0.07186 -0.03922,0.189354 0.02885,0.27237 0.181597,0.221454 0.134385,-0.0448 0.244339,-0.176784 0.244339,-0.293308 z m -1.293643,-0.974599 c -0.179737,-0.290822 -0.613126,-0.135681 -0.613126,0.219481 0,0.315212 0.04772,0.334935 0.351449,0.14525 0.193295,-0.120715 0.31105,-0.284843 0.261677,-0.364731 z M 26.339231,7.1495036 c 0,-0.087653 -0.122578,-0.2610918 -0.272395,-0.3854292 -0.149817,-0.1243375 -0.272395,-0.1818868 -0.272395,-0.1278864 0,0.054 -0.0496,0.2274433 -0.110222,0.3854293 -0.07902,0.2059217 -0.0019,0.2872476 0.272395,0.2872476 0.210444,0 0.382623,-0.071714 0.382623,-0.1593613 z m -1.46554,-1.1572168 c 0.007,-0.074914 -0.150673,-0.1361977 -0.350429,-0.1361977 -0.406938,0 -0.478899,0.3564478 -0.140315,0.6950304 0.176108,0.1761088 0.249645,0.1551489 0.350429,-0.099873 0.07016,-0.1775163 0.133296,-0.3840455 0.140315,-0.4589547 z"
     id="path3152"
     inkscape:connector-curvature="0" />
</svg>
