<?xml version="1.0" encoding="UTF-8" standalone="no"?>
<!-- Created with Inkscape (http://www.inkscape.org/) -->

<svg
   xmlns:dc="http://purl.org/dc/elements/1.1/"
   xmlns:cc="http://creativecommons.org/ns#"
   xmlns:rdf="http://www.w3.org/1999/02/22-rdf-syntax-ns#"
   xmlns:svg="http://www.w3.org/2000/svg"
   xmlns="http://www.w3.org/2000/svg"
   xmlns:sodipodi="http://sodipodi.sourceforge.net/DTD/sodipodi-0.dtd"
   xmlns:inkscape="http://www.inkscape.org/namespaces/inkscape"
   id="svg2"
   version="1.1"
   inkscape:version="0.48.4 r9939"
   width="39"
   height="34"
   sodipodi:docname="nyt.svg">
  <metadata
     id="metadata8">
    <rdf:RDF>
      <cc:Work
         rdf:about="">
        <dc:format>image/svg+xml</dc:format>
        <dc:type
           rdf:resource="http://purl.org/dc/dcmitype/StillImage" />
        <dc:title></dc:title>
      </cc:Work>
    </rdf:RDF>
  </metadata>
  <defs
     id="defs6" />
  <sodipodi:namedview
     pagecolor="#ffffff"
     bordercolor="#666666"
     borderopacity="1"
     objecttolerance="10"
     gridtolerance="10"
     guidetolerance="10"
     inkscape:pageopacity="0"
     inkscape:pageshadow="2"
     inkscape:window-width="1855"
     inkscape:window-height="1056"
     id="namedview4"
     showgrid="false"
     inkscape:zoom="4.627451"
     inkscape:cx="28.047683"
     inkscape:cy="17.807203"
     inkscape:window-x="65"
     inkscape:window-y="24"
     inkscape:window-maximized="1"
     inkscape:current-layer="svg2" />
  <path
     style="fill:#ffffff"
     d="M 17.177279,29.634231 C 12.653076,28.664544 9.451864,25.875111 8.2945484,21.894072 7.8610317,20.402788 7.9900569,17.204498 8.539784,15.815998 c 0.487342,-1.230972 1.62055,-2.754181 2.76024,-3.710218 0.474654,-0.39817 0.868896,-0.765911 0.876081,-0.817203 0.0072,-0.0513 -0.414512,-0.244273 -0.937111,-0.428846 C 9.370638,10.199851 8.4201523,8.5826524 8.6180427,6.4002843 8.8374156,3.9809093 10.960637,1.9922672 13.815171,1.5325578 c 1.946597,-0.3134893 3.5973,-3.614e-4 8.463984,1.6050655 1.85643,0.6124379 2.706541,0.682852 3.471045,0.2875134 0.581435,-0.3006798 0.738078,-0.604534 0.734115,-1.4241415 -0.0047,-0.9898061 -0.543157,-1.38030508 -1.930941,-1.40056116 -1.246344,-0.0181852 -0.462836,-0.31988425 0.873982,-0.33653026 1.66672,-0.0207522 3.307251,0.58869794 4.325425,1.60687012 2.619812,2.619798 1.01917,7.1308471 -2.836362,7.9936752 l -0.972293,0.2175909 0,1.41204 c 0,1.598367 -0.158562,1.35729 2.217081,3.3707 0.771453,0.653824 1.402643,1.241151 1.402643,1.305176 0,0.06403 -0.810148,0.804649 -1.800343,1.645839 l -1.800341,1.529436 -0.0096,2.036095 c -0.007,1.51416 0.04847,2.035659 0.216712,2.034397 0.355547,-0.0027 1.958923,-0.982982 2.807983,-1.716814 0.42454,-0.366921 1.195958,-1.3182 1.714248,-2.113957 0.518308,-0.795756 0.972366,-1.356856 1.009016,-1.246886 0.122944,0.368832 -0.324146,3.713276 -0.601833,4.501847 -1.658106,4.708973 -5.375454,7.124205 -10.894321,7.078256 -0.974738,-0.0081 -2.33742,-0.135886 -3.028171,-0.283938 z m 7.816669,-5.888856 0.769192,-0.19401 0,-2.118397 0,-2.118397 -0.588205,-0.516175 c -0.323513,-0.283894 -1.07039,-0.948906 -1.659716,-1.477807 -0.589328,-0.528897 -1.136413,-0.961632 -1.215739,-0.961632 -0.07931,0 -0.167232,0.911472 -0.195393,2.025492 l -0.05117,2.025491 -2.443315,0.991317 c -1.343822,0.545223 -2.482822,1.023867 -2.53111,1.063653 -0.166706,0.137372 0.768395,0.716974 1.693397,1.049599 1.625818,0.584637 4.409893,0.687937 6.222054,0.230866 z M 19.48051,10.598508 c 1.372364,-0.547325 2.431134,-1.0536735 2.352821,-1.1252137 -0.07832,-0.071543 -0.76092,-0.3106838 -1.516918,-0.5314298 L 18.941877,8.5405094 18.148108,8.9454649 c -0.436575,0.2227252 -1.289039,0.9027448 -1.894366,1.5111551 -1.443636,1.451006 -2.066771,2.940262 -2.204394,5.268457 -0.154851,2.619553 0.474185,4.489474 2.067117,6.144821 l 0.687857,0.714805 0.09049,-5.495529 0.09049,-5.49553 2.495203,-0.995136 z m 4.611982,3.929012 1.670648,-1.469468 0,-1.491486 0,-1.491485 -0.950178,-0.1055408 C 24.290364,9.91149 23.475926,9.8075843 23.0031,9.7386338 l -0.859685,-0.1253666 0,3.1918608 c 0,1.75552 0.06264,3.191858 0.139215,3.191858 0.07658,0 0.891013,-0.661261 1.809862,-1.469465 z M 16.975336,9.0166416 C 17.834332,8.7488181 18.504361,8.4968952 18.464291,8.4568167 18.290453,8.2829843 15.855972,7.6744434 14.903133,7.5666407 12.980535,7.349123 11.827199,8.0950828 11.827199,9.5561101 c 0,0.4123687 0.123832,0.9265569 0.275191,1.1426449 l 0.275189,0.39288 1.517968,-0.794021 C 14.730418,9.8609037 16.11632,9.2844641 16.975336,9.0166416 z"
     id="path3568"
     inkscape:connector-curvature="0" />
</svg>
