<?xml version="1.0" encoding="UTF-8" standalone="no"?>
<!-- Created with Inkscape (http://www.inkscape.org/) -->

<svg
   xmlns:dc="http://purl.org/dc/elements/1.1/"
   xmlns:cc="http://creativecommons.org/ns#"
   xmlns:rdf="http://www.w3.org/1999/02/22-rdf-syntax-ns#"
   xmlns:svg="http://www.w3.org/2000/svg"
   xmlns="http://www.w3.org/2000/svg"
   xmlns:sodipodi="http://sodipodi.sourceforge.net/DTD/sodipodi-0.dtd"
   xmlns:inkscape="http://www.inkscape.org/namespaces/inkscape"
   id="svg3959"
   version="1.1"
   inkscape:version="0.48.4 r9939"
   width="250"
   height="90"
   sodipodi:docname="python_logo.svg">
  <metadata
     id="metadata3965">
    <rdf:RDF>
      <cc:Work
         rdf:about="">
        <dc:format>image/svg+xml</dc:format>
        <dc:type
           rdf:resource="http://purl.org/dc/dcmitype/StillImage" />
        <dc:title></dc:title>
      </cc:Work>
    </rdf:RDF>
  </metadata>
  <defs
     id="defs3963" />
  <sodipodi:namedview
     pagecolor="#ffffff"
     bordercolor="#666666"
     borderopacity="1"
     objecttolerance="10"
     gridtolerance="10"
     guidetolerance="10"
     inkscape:pageopacity="0"
     inkscape:pageshadow="2"
     inkscape:window-width="1855"
     inkscape:window-height="1056"
     id="namedview3961"
     showgrid="false"
     fit-margin-top="0"
     fit-margin-left="0"
     fit-margin-right="0"
     fit-margin-bottom="0"
     inkscape:zoom="1.9466667"
     inkscape:cx="293.73028"
     inkscape:cy="-112.97339"
     inkscape:window-x="65"
     inkscape:window-y="24"
     inkscape:window-maximized="1"
     inkscape:current-layer="svg3959" />
  <path
     style="fill:#ffffff"
     d="m 34.556365,72.758616 c -6.729435,-2.154168 -7.271399,-3.18727 -7.271399,-13.860817 0,-13.091416 0.609946,-13.725065 13.247865,-13.762686 10.988642,-0.03272 13.278992,-0.841539 15.387936,-5.434143 0.64195,-1.397989 0.95799,-3.310793 0.96568,-5.844649 l 0.0114,-3.766549 3.826361,0 c 3.097273,0 4.089973,0.207343 5.209743,1.088157 4.60381,3.621361 5.90513,15.20883 2.52031,22.442011 -2.33786,4.995913 -2.48639,5.043663 -15.686802,5.043663 -6.944193,0 -10.935815,0.18963 -10.935815,0.519524 0,0.319709 2.597625,0.519524 6.753818,0.519524 l 6.753813,0 -0.0021,3.766545 c -0.0034,5.829525 -1.721693,7.869581 -8.050689,9.556082 -3.57048,0.951431 -9.300007,0.831415 -12.730285,-0.266662 z M 51.276653,67.237855 C 51.764825,66.166426 51.70378,65.760282 50.925226,64.9 c -1.708493,-1.887864 -3.898337,-1.003814 -3.898337,1.573779 0,1.736393 0.342495,2.06078 2.175823,2.06078 1.077191,0 1.644822,-0.354903 2.073941,-1.296702 z m 36.922538,4.110217 -1.68847,-0.738401 0,-18.361091 c 0,-20.853538 -0.41127,-18.998525 4.73445,-21.35431 3.509628,-1.606769 8.227078,-2.177155 11.247749,-1.359959 4.95572,1.340701 7.91927,6.087613 8.32288,13.331268 0.31898,5.725234 -0.75582,9.348536 -3.67101,12.375492 -3.3644,3.493366 -7.461801,4.278132 -12.445991,2.383745 -1.50319,-0.571331 -2.791508,-1.038903 -2.862938,-1.039048 -0.0713,-1.44e-4 -0.12983,3.506526 -0.12983,7.792598 0,8.658462 0.0641,8.53128 -3.50677,6.969706 z M 101.88083,53.746974 c 2.42131,-1.586503 3.07302,-3.683842 3.07302,-9.889811 0,-4.554862 -0.19877,-6.114835 -0.97922,-7.685867 -1.68662,-3.395019 -5.024391,-4.29603 -9.838251,-2.655781 l -2.430408,0.828122 0,9.223698 0,9.223697 1.948218,0.822933 c 1.07151,0.452613 2.29888,0.947953 2.72749,1.100754 1.22067,0.43518 4.142861,-0.07908 5.499151,-0.967743 z m 21.78703,17.7165 c -0.67777,-2.128677 -0.74883,-2.409391 -0.60979,-2.409391 0.0814,0 1.53524,-0.254043 3.23072,-0.564544 5.90231,-1.080899 8.01817,-3.478415 8.01817,-9.085549 0,-2.584537 -0.1071,-2.886131 -0.90917,-2.560197 -4.02634,1.636162 -10.40017,1.96589 -12.85821,0.665178 -1.99778,-1.057145 -3.67881,-2.869573 -4.38137,-4.723837 -0.32473,-0.857059 -0.55412,-5.729754 -0.55412,-11.770339 l 0,-10.307829 2.43039,-0.828122 c 1.33674,-0.455466 2.50566,-0.828122 2.59763,-0.828122 0.092,0 0.16722,4.804222 0.16722,10.676046 0,12.41041 0.19268,13.134016 3.87129,14.538899 1.98775,0.759132 2.70385,0.79973 4.81667,0.273101 5.0751,-1.264985 4.81967,-0.545261 4.81967,-13.57943 l 0,-11.446019 2.46773,0.158345 2.46773,0.158346 -0.0165,15.845488 c -0.0182,17.312469 -0.24245,19.040977 -2.85892,22.02099 -1.86793,2.127436 -5.92119,3.946217 -9.65262,4.331334 -2.27767,0.23508 -2.8242,0.133827 -3.04651,-0.564348 z M 17.389042,57.492907 c -0.955457,-0.643883 -2.192087,-1.949577 -2.748064,-2.901543 -1.164599,-1.994068 -2.381483,-7.184209 -2.394943,-10.214678 -0.0161,-3.623499 1.417509,-9.104168 2.884514,-11.027513 2.279882,-2.989076 3.566611,-3.259401 15.514641,-3.259401 9.135366,0 10.666928,-0.111897 10.666928,-0.779286 0,-0.654496 -1.131379,-0.779287 -7.065266,-0.779287 l -7.06527,0 0.181574,-4.721047 c 0.169474,-4.406434 0.277333,-4.8034 1.618548,-5.956735 2.25193,-1.936485 5.231172,-2.541405 12.590176,-2.556361 5.863491,-0.01186 7.077298,0.135712 9.207709,1.11986 4.165052,1.924073 4.555468,3.067785 4.557747,13.351775 0.0034,13.280064 -0.552123,13.828708 -13.990534,13.828708 -9.174898,0 -10.74079,0.349912 -13.081979,2.923282 -1.848246,2.031537 -2.53843,4.36541 -2.53843,8.58378 l 0,3.559142 -3.300076,0 c -2.563482,0 -3.687833,-0.261307 -5.037275,-1.170696 z M 35.615996,23.301115 c 0.726011,-1.356554 -0.581034,-3.60183 -2.096742,-3.60183 -0.558302,0 -1.38778,0.568787 -1.843278,1.263971 -1.147528,1.751347 -0.250456,3.411748 1.843278,3.411748 1.006764,0 1.716581,-0.363547 2.096742,-1.073889 z M 198.79199,58.17119 c -5.09836,-1.285529 -8.82696,-6.475051 -9.28866,-12.928184 -0.33156,-4.633988 0.51158,-8.039203 2.75192,-11.114243 2.50765,-3.441889 5.27592,-4.787417 9.84962,-4.787417 7.96519,0 12.87591,5.480891 12.83726,14.327763 -0.0274,6.247583 -2.60754,11.248234 -6.95418,13.477423 -2.24705,1.152417 -6.71491,1.650247 -9.19596,1.024658 z m 6.99774,-4.002905 c 2.47233,-1.619941 3.51739,-4.574871 3.55477,-10.051362 0.0269,-3.9458 -0.17465,-5.350812 -1.00536,-7.00672 -2.38592,-4.756099 -7.65982,-5.812562 -10.97237,-2.197966 -3.9411,4.300487 -3.399,15.167889 0.93869,18.81782 1.85025,1.556868 5.4549,1.767933 7.48427,0.438231 z m -55.42301,2.791271 c -2.878,-1.939486 -3.05557,-2.736436 -3.064,-13.7518 l -0.008,-10.000841 -1.55857,0 c -1.43488,0 -1.55858,-0.144318 -1.55858,-1.818331 0,-1.67402 0.12369,-1.818338 1.55858,-1.818338 l 1.55857,0 0,-3.814195 0,-3.814205 2.00849,-0.601752 c 1.10469,-0.330969 2.1567,-0.601761 2.33787,-0.601761 0.18115,0 0.32937,1.974962 0.32937,4.388809 l 0,4.388806 2.7275,0.157029 c 2.64933,0.152531 2.7275,0.201711 2.7275,1.715607 0,1.517466 -0.0732,1.56276 -2.77571,1.717278 l -2.77571,0.158698 0.17809,9.824217 c 0.19658,10.844985 0.26922,11.085218 3.7016,12.241609 1.08683,0.366159 1.7298,0.956906 1.83773,1.688453 0.15286,1.03602 -0.0573,1.125241 -2.65067,1.125241 -2.07169,0 -3.28156,-0.313298 -4.5744,-1.184524 z m 11.99455,-20.388588 0,-21.573117 1.32171,-0.502519 c 0.72696,-0.276386 1.8959,-0.646622 2.59763,-0.82275 l 1.27589,-0.320229 0,9.588079 0,9.588081 2.72466,-1.34841 c 2.11053,-1.044507 3.50664,-1.3486 6.19433,-1.34925 3.87489,-9.98e-4 5.49308,0.830023 7.57591,3.890307 1.12416,1.651739 1.16893,2.152285 1.16893,13.070217 l 0,11.352704 -2.33787,0 -2.33786,0 -0.003,-9.481318 c -0.003,-10.48921 -0.4005,-12.80062 -2.48273,-14.443833 -1.82759,-1.442261 -4.85838,-1.158719 -8.13407,0.760964 l -2.36818,1.387967 0,10.88811 0,10.88811 -2.59761,0 -2.59763,0 0,-21.573113 z m 56.62813,9.371663 0,-12.201443 1.94823,-1.285982 c 3.26525,-2.155326 6.32676,-3.033114 10.78011,-3.090845 4.61832,-0.05985 6.7667,0.794289 8.77762,3.489804 1.03624,1.389014 1.09334,2.081121 1.09334,13.247866 l 0,11.782285 -2.46774,0.158347 -2.46775,0.158345 -7.1e-4,-10.289069 c -5.2e-4,-11.263389 -0.4177,-13.211949 -3.11612,-14.560257 -1.94542,-0.97207 -5.49604,-0.796976 -7.81354,0.385316 l -2.05741,1.049609 0,11.678737 0,11.678736 -2.33786,0 -2.33784,0 0,-12.201449 z"
     id="path4073"
     inkscape:connector-curvature="0" />
</svg>
