<?xml version="1.0" encoding="UTF-8" standalone="no"?>
<!-- Created with Inkscape (http://www.inkscape.org/) -->

<svg
   xmlns:dc="http://purl.org/dc/elements/1.1/"
   xmlns:cc="http://creativecommons.org/ns#"
   xmlns:rdf="http://www.w3.org/1999/02/22-rdf-syntax-ns#"
   xmlns:svg="http://www.w3.org/2000/svg"
   xmlns="http://www.w3.org/2000/svg"
   xmlns:sodipodi="http://sodipodi.sourceforge.net/DTD/sodipodi-0.dtd"
   xmlns:inkscape="http://www.inkscape.org/namespaces/inkscape"
   height="34"
   width="39"
   version="1.1"
   id="svg12891"
   inkscape:version="0.48.4 r9939"
   sodipodi:docname="scribus.svg">
  <defs
     id="defs12899" />
  <sodipodi:namedview
     pagecolor="#ffffff"
     bordercolor="#666666"
     borderopacity="1"
     objecttolerance="10"
     gridtolerance="10"
     guidetolerance="10"
     inkscape:pageopacity="0"
     inkscape:pageshadow="2"
     inkscape:window-width="1043"
     inkscape:window-height="857"
     id="namedview12897"
     showgrid="false"
     inkscape:zoom="19.793199"
     inkscape:cx="19.5"
     inkscape:cy="17"
     inkscape:window-x="65"
     inkscape:window-y="24"
     inkscape:window-maximized="0"
     inkscape:current-layer="svg12891" />
  <metadata
     id="metadata12893">
    <rdf:RDF>
      <cc:Work
         rdf:about="">
        <dc:format>image/svg+xml</dc:format>
        <dc:type
           rdf:resource="http://purl.org/dc/dcmitype/StillImage" />
        <dc:title />
      </cc:Work>
    </rdf:RDF>
  </metadata>
  <path
     style="text-indent:0;text-align:start;text-transform:none;direction:ltr;block-progression:tb;baseline-shift:baseline;color:#000000;fill:#ffffff;fill-rule:evenodd;enable-background:accumulate"
     d="m 18.638042,0.05196635 c -7.75491,0 -14.0420005,6.43383005 -14.0420005,14.35609965 0,7.92222 6.2870105,14.3574 14.0420005,14.3574 7.75495,0 14.0406,-6.43522 14.0406,-14.3574 0,-2.40835 -0.582093,-4.6778996 -1.60857,-6.6722096 0.290685,-0.491214 0.57481,-0.897323 0.826722,-1.22784 0.65081,0.035307 1.21599,-0.110869 1.59768,-0.46095 0.9945,-0.91218 0.3698,-2.85544 -1.3951,-4.34034 -1.1582,-0.97446005 -2.519,-1.50902005 -3.5992,-1.50386005 -0.5658,0.00274 -1.0546,0.152852 -1.3964,0.466384 -0.5192,0.47618005 -0.5959,1.23366005 -0.3005,2.06000005 -2.3007,-1.68507 -5.1197,-2.67731005 -8.1652,-2.67731005 z m 0,0.576528 c 3.15009,0 6.04707,1.10621005 8.3406,2.96014005 -1.6018,3.22626 -4.14256,7.1141296 -4.53742,7.8755696 -1.2425,1.72173 -3.87386,10.2195 -4.92631,13.857 l 0.341297,0.01632 c -0.09966,-0.09311 4.90479,-7.51256 11.022,-8.52008 0.0088,-3.95807 0.914535,-6.67581 1.85467,-8.4738596 0.876881,1.8293996 1.36925,3.8874396 1.36925,6.0644096 0,7.61732 -6.0282,13.7809 -13.4641,13.7809 -7.43587,0 -13.4654005,-6.16359 -13.4654005,-13.7809 0,-1.47049 0.22565,-2.88564 0.641794,-4.21381 0.695837,7.66431 11.1342005,14.9221 11.0818005,14.7613 0,0 -3.75282,-5.93789 -0.84031,-11.9384 2.2928,-4.7778396 3.01949,-9.1811096 1.20336,-12.31779965 0.453497,-0.047175 0.913106,-0.070702 1.37877,-0.070702 z m 12.946,2.75346005 0.367134,0.662191 c -2.03803,3.68326 -4.54548,7.6226496 -4.31851,10.8846996 -1.31382,0.258748 -1.89831,1.10785 -3.22528,2.1511 1.32367,-3.24634 6.33362,-12.4210996 7.17666,-13.6978996 z m -8.38139,8.5268796 c 0.03658,-0.0023 0.06806,0.0049 0.09518,0.02312 0.173578,0.116131 0.06511,0.627148 -0.243396,1.14081 -0.308493,0.513669 -0.699368,0.835429 -0.872946,0.719298 -0.173578,-0.116131 -0.06511,-0.627145 0.24339,-1.14081 0.260294,-0.433409 0.580205,-0.729895 0.77777,-0.742414 z"
     id="path12895"
     inkscape:connector-curvature="0" />
</svg>
