<?xml version="1.0" encoding="UTF-8" standalone="no"?>
<!-- Created with Inkscape (http://www.inkscape.org/) -->

<svg
   xmlns:dc="http://purl.org/dc/elements/1.1/"
   xmlns:cc="http://creativecommons.org/ns#"
   xmlns:rdf="http://www.w3.org/1999/02/22-rdf-syntax-ns#"
   xmlns:svg="http://www.w3.org/2000/svg"
   xmlns="http://www.w3.org/2000/svg"
   xmlns:sodipodi="http://sodipodi.sourceforge.net/DTD/sodipodi-0.dtd"
   xmlns:inkscape="http://www.inkscape.org/namespaces/inkscape"
   id="svg2"
   version="1.1"
   inkscape:version="0.48.4 r9939"
   width="39"
   height="34"
   sodipodi:docname="washington-post-logo-thumb.jpg.svg">
  <metadata
     id="metadata8">
    <rdf:RDF>
      <cc:Work
         rdf:about="">
        <dc:format>image/svg+xml</dc:format>
        <dc:type
           rdf:resource="http://purl.org/dc/dcmitype/StillImage" />
        <dc:title></dc:title>
      </cc:Work>
    </rdf:RDF>
  </metadata>
  <defs
     id="defs6" />
  <sodipodi:namedview
     pagecolor="#ffffff"
     bordercolor="#666666"
     borderopacity="1"
     objecttolerance="10"
     gridtolerance="10"
     guidetolerance="10"
     inkscape:pageopacity="0"
     inkscape:pageshadow="2"
     inkscape:window-width="894"
     inkscape:window-height="790"
     id="namedview4"
     showgrid="false"
     inkscape:zoom="9.2549019"
     inkscape:cx="28.047683"
     inkscape:cy="17.807203"
     inkscape:window-x="144"
     inkscape:window-y="132"
     inkscape:window-maximized="0"
     inkscape:current-layer="svg2" />
  <path
     style="fill:#ffffff"
     d="m 25.561536,29.23205 c 0,-2.845283 -0.0697,-4.301173 -0.20593,-4.301173 -0.409998,0 -1.888024,0.84867 -2.514153,1.4436 -0.352365,0.33481 -0.69057,0.558841 -0.751568,0.497845 -0.188277,-0.188275 0.327326,-1.996725 0.812885,-2.851145 0.484332,-0.85227 1.458903,-1.70829 2.218129,-1.9483 0.446648,-0.14121 0.450072,-0.16927 0.39608,-3.24665 l -0.05446,-3.10421 -0.690522,0.0343 c -0.501691,0.0249 -0.845973,0.20828 -1.258966,0.6705 -0.681662,0.76291 -0.914814,0.55882 -0.91832,-0.80382 -0.0039,-1.52346 1.151393,-2.77256 2.564387,-2.77256 0.374734,0 0.401687,-0.11931 0.391484,-1.73285 -0.01065,-1.6834483 -0.0279,-1.7462483 -0.605129,-2.2026183 l -0.59417,-0.4697701 -0.4632,0.4351501 c -0.815358,0.76599 -0.826785,0.0537 -0.01252,-0.7801801 0.40479,-0.4145402 1.170288,-1.2163102 1.701109,-1.7817002 l 0.965126,-1.02799 1.490269,1.34973 1.490269,1.3497302 0,1.5735901 0,1.5735883 0.4951,-0.46513 c 0.459463,-0.431638 0.4951,-0.598048 0.4951,-2.3119784 0,-1.5096202 0.05424,-1.8468602 0.29706,-1.8468602 0.235864,0 0.299017,0.29578 0.306554,1.4357902 l 0.0095,1.4357901 1.932033,-2.0470403 1.932031,-2.04704 1.281564,1.15586 c 0.70486,0.63573 1.568974,1.3951902 1.920254,1.6876902 l 0.638699,0.5318201 -0.01337,6.7956583 -0.01337,6.79566 -2.849552,2.10458 c -2.806849,2.07305 -2.854868,2.09872 -3.204318,1.71258 -0.322864,-0.35676 -1.275183,-0.94558 -1.529318,-0.94558 -0.05724,0 -0.128501,1.46388 -0.158365,3.253059 l -0.0543,3.253061 -0.870588,-0.788381 -0.870586,-0.78838 -0.713734,0.651613 c -0.392553,0.358387 -1.226161,1.140249 -1.852462,1.737471 l -1.138731,1.085859 0,-4.30117 z m 4.858835,-18.322153 c -0.05278,-0.0528 -0.273469,0.11717 -0.490414,0.37767 -0.380847,0.45732 -0.39467,0.78169 -0.401031,9.4108 l -0.0066,8.937162 0.44559,0.295899 0.44559,0.2959 0.05141,-9.610731 c 0.02828,-5.2859 0.0082,-9.65392 -0.04456,-9.7067 z m 4.251007,5.69188 0,-6.546748 -0.94069,-0.8679703 -0.94069,-0.8679701 -0.84167,0.8216101 -0.841671,0.8216 0,5.7647783 0,5.76479 1.090359,0.3437 c 0.599697,0.18904 1.334921,0.55897 1.633831,0.82207 0.298909,0.2631 0.610309,0.48118 0.692001,0.48462 0.08169,0.003 0.14853,-2.93978 0.14853,-6.54048 z m -28.2609746,9.27845 c -0.5224613,-0.47639 -1.5069183,-1.33929 -2.1876809,-1.91755 l -1.2377503,-1.05139 0,-3.14905 0,-3.14904 -0.7862308,0 c -0.642018,0 -0.8659181,0.10778 -1.22067525,0.58761 -0.39919526,0.53994 -0.455401,0.56002 -0.69276981,0.24755 -0.37974573,-0.4999 -0.32815035,-1.03849 0.20544872,-2.14459 0.56105144,-1.163 0.77747954,-1.36738 1.70206704,-1.60727 l 0.6931401,-0.17984 -0.00737,-2.858119 C 2.8712722,7.8193386 2.8670162,7.7927386 2.2349521,6.6415784 c -0.7441433,-1.35531 -0.7580893,-1.5227 -0.2251953,-2.70294 0.5003917,-1.10827 1.2852323,-1.80958 3.0133158,-2.69264 1.3577823,-0.69382999 2.2756523,-0.74735999 1.1577441,-0.0675 -0.8339565,0.50716 -1.2379028,1.20155 -1.2509991,2.15049 -0.00893,0.64708 0.1335601,0.98555 0.7121539,1.69165 0.9538242,1.16401 1.302339,2.0464 1.31052,3.3180502 l 0.00673,1.0460701 1.7713849,-1.8318703 c 0.97426,-1.00753 1.8384586,-1.83187 1.9204376,-1.83187 0.08198,0 0.975072,0.82258 1.984646,1.82795 l 1.835592,1.8279603 1.879596,-1.8717803 1.879598,-1.87178 1.031743,0.98451 c 0.567458,0.54149 1.370325,1.3297202 1.784145,1.7516402 l 0.7524,0.7671301 0,5.7898983 0,5.7899 -3.270778,3.01719 -3.270778,3.01718 -1.700625,-1.45457 c -0.93534,-0.80002 -1.946018,-1.65155 -2.245946,-1.89229 l -0.545325,-0.43773 -1.4245131,1.65939 c -2.0161783,2.348614 -1.8218653,2.265422 -2.9304043,1.25463 z m 11.4275716,-8.7307 0,-6.593109 -0.868776,-0.8526393 c -0.866326,-0.85023 -0.870258,-0.85166 -1.394323,-0.50828 -0.289049,0.18939 -0.611045,0.5041 -0.715544,0.69936 -0.107627,0.2011103 -0.192169,2.7002383 -0.195006,5.7646283 l -0.005,5.40961 1.440799,1.32997 c 0.792439,0.73149 1.507637,1.33303 1.589329,1.33677 0.08169,0.004 0.14853,-2.9601 0.14853,-6.58631 z m -7.684889,5.66488 0.555447,-0.53215 0,-5.59707 0,-5.59706 -0.8416696,-0.860308 C 8.4035754,8.7321187 8.4116574,8.7347787 7.6307974,9.4916187 l -0.6850244,0.6639503 0,5.487438 0,5.48743 1.2377502,1.10262 c 0.6807626,0.60643 1.2774335,1.10506 1.3259335,1.10805 0.048502,0.003 0.3381357,-0.23402 0.6436293,-0.5267 z"
     id="path2987"
     inkscape:connector-curvature="0" />
</svg>
